o Button
v -0.5 0 0.5
v 0.5 0 0.5
v 0.4 0 0.4
v -0.4 0 0.4
v -0.4 0 -0.4
v -0.5 0 -0.5
v 0.5 0 -0.5
v 0.4 0 -0.4
vt 0.279069767441861 0.0697674418604651
vt 0.930232558139535 0.0697674418604651
vt 0.88953488372093 0.11046511627907
vt 0.848837209302326 0.151162790697674
vt 0.767441860465117 0.232558139534884
vt 0.604651162790698 0.395348837209302
vt 0.828488372093023 0.171511627906977
vn 0 1 0
g Button
f 1/1/1 2/2/1 3/3/1 4/4/1
f 4/4/1 5/5/1 6/6/1 1/1/1
f 3/3/1 2/2/1 7/5/1 8/7/1
f 8/7/1 7/5/1 6/6/1 5/5/1
#h 
